<svg width="100" height="100" viewBox="0 0 100 100" fill="none" xmlns="http://www.w3.org/2000/svg">
<path d="M49.997 0L100 25.0025V74.9975L50.003 100L0 74.9975V25.0025L49.997 0Z" fill="white"/>
<path d="M4.05249 26.8828L50.0027 50V96.2445L4.05857 73.1273L4.05249 26.8828Z" fill="black"/>
<path d="M95.9351 26.8828L49.991 50V96.2445L95.9351 73.1273V26.8828Z" fill="black"/>
<path d="M4.05249 26.8828L50.0027 3.7605L95.9408 26.8828L50.0027 50L4.05249 26.8828Z" fill="black"/>
<path d="M49.9969 19.8953L80.107 34.9476V65.0574L49.9969 80.1097L19.8867 65.0574V34.9476L49.9969 19.8953Z" fill="white"/>
<path d="M35.0938 42.4739L50.0089 50.0001V65.0575L35.0998 57.5364L35.0938 42.4739Z" fill="black"/>
<path d="M64.8934 42.4739L49.9966 50.0001V65.0575L64.8934 57.5364V42.4739Z" fill="black"/>
<path d="M35.0938 42.4738L50.0089 34.9528L64.8996 42.4738L50.0028 50L35.0938 42.4738Z" fill="black"/>
</svg>
