<svg width="100" height="100" viewBox="0 0 100 100" fill="none" xmlns="http://www.w3.org/2000/svg">
<path d="M26.4253 27.4257L20 21.0004V67.3352L20.0905 69.5072C20.0905 70.5026 20.2715 71.6791 20.6335 72.8556L71.4932 90.7741L84.1629 85.1633L26.4253 27.4257Z" fill="black"/>
<path d="M71.7791 90.8787L71.9664 90.9448L72.148 90.8644L83.8089 85.7003L79.723 98.7751L43.374 98.686L26.9597 82.3614C26.9596 82.3612 26.9594 82.3611 26.9593 82.361C24.8777 80.2792 22.9842 76.6841 21.9272 73.2839L71.7791 90.8787Z" fill="black" stroke="white"/>
<path d="M1.26802 50.8417L1.29811 50.8099L1.32223 50.7734L20.1335 22.2975V67.0589V67.0693L20.134 67.0797L20.224 69.2415C20.2255 70.035 20.3862 70.9241 20.5787 71.8048L14.3923 69.6122L3.07449 58.2046C3.07374 58.2038 3.07299 58.203 3.07225 58.2023C1.81678 56.9027 1.00808 55.3999 0.702819 54.042C0.394889 52.6722 0.61145 51.5347 1.26802 50.8417Z" fill="black" stroke="white"/>
<path d="M72.3078 21.1765C71.1314 20.905 69.9549 20.724 68.9594 20.6335L66.697 20.543H20.4526L84.6155 84.7059L90.2264 72.0362L72.3078 21.1765Z" fill="#000203"/>
<path d="M85.5248 83.8874L90.6835 72.2387L90.7639 72.0572L90.6979 71.8701L73.0928 21.8999C76.5457 22.893 80.085 24.8647 82.1799 26.9593C82.1801 26.9595 82.1803 26.9597 82.1805 26.9599L97.8712 42.7402V79.9074L85.5248 83.8874Z" fill="black" stroke="white"/>
<path d="M22.0261 20.1336L50.5019 1.32223L50.5331 1.30165L50.5608 1.27669C51.3034 0.608348 52.4728 0.395822 53.8384 0.702819C55.1955 1.00791 56.6743 1.8158 57.9271 3.06855L57.9285 3.06994L69.3386 14.3902L71.4404 20.54C70.5405 20.3311 69.6616 20.225 68.879 20.2241L66.6264 20.1339L66.6164 20.1336H66.6064H22.0261Z" fill="#000202" stroke="white"/>
</svg>
