<svg width="74" height="101" viewBox="0 0 74 101" fill="none" xmlns="http://www.w3.org/2000/svg">
<path d="M37.8813 17.1591L47.7911 37.0064L38.5548 45.6062L29.6737 27.685L34.3639 17.151C34.9179 16.1797 35.574 15.8058 36.1225 15.8034C36.67 15.8009 37.3267 16.1682 37.8813 17.1591Z" fill="black" stroke="white"/>
<path d="M38.4088 46.4251L1 81.2192L29.1256 27.6964L38.4088 46.4251Z" fill="black"/>
<path d="M36.8213 100.491C36.8043 100.489 36.7832 100.486 36.7584 100.483C36.6838 100.473 36.5754 100.458 36.4419 100.438C36.1747 100.399 35.8081 100.341 35.4104 100.265C34.5922 100.109 33.7297 99.8938 33.2846 99.6512L1.81037 81.1163L59.7202 23.2346C60.5446 22.4511 61.2693 22.2938 61.7696 22.451C62.2681 22.6077 62.7667 23.147 62.9817 24.2594C62.982 24.261 62.9823 24.2625 62.9826 24.2641L72.6481 80.4966L40.692 99.6814C40.4668 99.806 40.1204 99.9261 39.6965 100.034C39.2764 100.141 38.8118 100.228 38.3748 100.297C37.9389 100.366 37.5366 100.416 37.243 100.448C37.0964 100.465 36.9774 100.477 36.8954 100.484C36.8657 100.487 36.8408 100.489 36.8213 100.491Z" fill="black" stroke="white"/>
<path d="M29.5681 27.9291L29.6868 27.7031L29.5735 27.4744L17.0674 2.24339L17.0604 2.22918L17.0524 2.21544C16.7235 1.6457 16.3663 1.19939 15.9868 0.904845C15.6055 0.608914 15.1636 0.43989 14.703 0.519442C14.2433 0.598853 13.883 0.905601 13.6209 1.30978C13.3597 1.71263 13.1683 2.25021 13.0436 2.89317L13.042 2.90121L13.0408 2.90929L0.506297 81.1401L1.44261 81.4518L29.5681 27.9291Z" fill="black" stroke="white"/>
</svg>
